{
    "asset" : {
        "generator" : "Khronos glTF Blender I/O v1.2.75",
        "version" : "2.0"
    },
    "scene" : 0,
    "scenes" : [
        {
            "name" : "Scene",
            "nodes" : [
                0,
                1,
                2,
                3
            ]
        }
    ],
    "nodes" : [
        {
            "mesh" : 0,
            "name" : "Cross Joint",
            "rotation" : [
                0.7071068286895752,
                0,
                0,
                0.7071067094802856
            ]
        },
        {
            "mesh" : 1,
            "name" : "Cross Joint.001",
            "rotation" : [
                0.7071068286895752,
                0,
                0,
                0.7071067094802856
            ],
            "translation" : [
                0,
                0,
                -40
            ]
        },
        {
            "mesh" : 2,
            "name" : "Cross Joint.003",
            "rotation" : [
                0.7071068286895752,
                0,
                0,
                0.7071067094802856
            ],
            "translation" : [
                40,
                0,
                0
            ]
        },
        {
            "mesh" : 3,
            "name" : "Cross Joint.002",
            "rotation" : [
                0.7071068286895752,
                0,
                0,
                0.7071067094802856
            ],
            "translation" : [
                40,
                0,
                -40
            ]
        }
    ],
    "meshes" : [
        {
            "name" : "Cross Joint",
            "primitives" : [
                {
                    "attributes" : {
                        "POSITION" : 0,
                        "NORMAL" : 1
                    },
                    "indices" : 2
                }
            ]
        },
        {
            "name" : "Cross Joint.001",
            "primitives" : [
                {
                    "attributes" : {
                        "POSITION" : 3,
                        "NORMAL" : 4
                    },
                    "indices" : 2
                }
            ]
        },
        {
            "name" : "Cross Joint.003",
            "primitives" : [
                {
                    "attributes" : {
                        "POSITION" : 5,
                        "NORMAL" : 6
                    },
                    "indices" : 2
                }
            ]
        },
        {
            "name" : "Cross Joint.002",
            "primitives" : [
                {
                    "attributes" : {
                        "POSITION" : 7,
                        "NORMAL" : 8
                    },
                    "indices" : 2
                }
            ]
        }
    ],
    "accessors" : [
        {
            "bufferView" : 0,
            "componentType" : 5126,
            "count" : 19084,
            "max" : [
                20,
                20,
                4
            ],
            "min" : [
                -20,
                -20,
                -4
            ],
            "type" : "VEC3"
        },
        {
            "bufferView" : 1,
            "componentType" : 5126,
            "count" : 19084,
            "type" : "VEC3"
        },
        {
            "bufferView" : 2,
            "componentType" : 5123,
            "count" : 36864,
            "type" : "SCALAR"
        },
        {
            "bufferView" : 3,
            "componentType" : 5126,
            "count" : 19084,
            "max" : [
                20,
                20,
                4
            ],
            "min" : [
                -20,
                -20,
                -4
            ],
            "type" : "VEC3"
        },
        {
            "bufferView" : 4,
            "componentType" : 5126,
            "count" : 19084,
            "type" : "VEC3"
        },
        {
            "bufferView" : 5,
            "componentType" : 5126,
            "count" : 19084,
            "max" : [
                20,
                20,
                4
            ],
            "min" : [
                -20,
                -20,
                -4
            ],
            "type" : "VEC3"
        },
        {
            "bufferView" : 6,
            "componentType" : 5126,
            "count" : 19084,
            "type" : "VEC3"
        },
        {
            "bufferView" : 7,
            "componentType" : 5126,
            "count" : 19084,
            "max" : [
                20,
                20,
                4
            ],
            "min" : [
                -20,
                -20,
                -4
            ],
            "type" : "VEC3"
        },
        {
            "bufferView" : 8,
            "componentType" : 5126,
            "count" : 19084,
            "type" : "VEC3"
        }
    ],
    "bufferViews" : [
        {
            "buffer" : 0,
            "byteLength" : 229008,
            "byteOffset" : 0
        },
        {
            "buffer" : 0,
            "byteLength" : 229008,
            "byteOffset" : 229008
        },
        {
            "buffer" : 0,
            "byteLength" : 73728,
            "byteOffset" : 458016
        },
        {
            "buffer" : 0,
            "byteLength" : 229008,
            "byteOffset" : 531744
        },
        {
            "buffer" : 0,
            "byteLength" : 229008,
            "byteOffset" : 760752
        },
        {
            "buffer" : 0,
            "byteLength" : 229008,
            "byteOffset" : 989760
        },
        {
            "buffer" : 0,
            "byteLength" : 229008,
            "byteOffset" : 1218768
        },
        {
            "buffer" : 0,
            "byteLength" : 229008,
            "byteOffset" : 1447776
        },
        {
            "buffer" : 0,
            "byteLength" : 229008,
            "byteOffset" : 1676784
        }
    ],
    "buffers" : [
        {
            "byteLength" : 1905792,
            "uri" : "data:application/octet-stream;base64,"
        }
    ]
}
